<mxfile host="app.diagrams.net" agent="Mozilla/5.0 (Macintosh; Intel Mac OS X 10_15_7) AppleWebKit/537.36 (KHTML, like Gecko) Chrome/139.0.0.0 Safari/537.36" version="28.1.0">
  <diagram name="Page-1" id="toyqWjw3-tFAEOU__Un6">
    <mxGraphModel grid="1" page="1" gridSize="10" guides="1" tooltips="1" connect="1" arrows="1" fold="1" pageScale="1" pageWidth="827" pageHeight="1169" math="0" shadow="0">
      <root>
        <mxCell id="0" />
        <mxCell id="1" parent="0" />
        <mxCell id="_b9NuXSDLzWbAmvTPXuV-7" value="Trust Integration Engine&lt;br&gt;(MFT, Alder Hey, etc)" style="rounded=0;whiteSpace=wrap;html=1;verticalAlign=top;" vertex="1" parent="1">
          <mxGeometry x="1110" y="600" width="190" height="180" as="geometry" />
        </mxCell>
        <mxCell id="HnpPnAv44DMsRuAQf5Vg-59" value="Regional Integration Engine&lt;br&gt;(NW GMSA)" style="rounded=0;whiteSpace=wrap;html=1;verticalAlign=top;" vertex="1" parent="1">
          <mxGeometry x="420" y="710" width="620" height="230" as="geometry" />
        </mxCell>
        <mxCell id="SpyZkMs1lM7mogaTS6Ty-38" value="" style="rounded=0;whiteSpace=wrap;html=1;strokeColor=none;" vertex="1" parent="1">
          <mxGeometry x="153.5" y="800" width="73" height="50" as="geometry" />
        </mxCell>
        <mxCell id="HnpPnAv44DMsRuAQf5Vg-33" value="NW GMSA LIMS iGene" style="rounded=1;whiteSpace=wrap;html=1;fillColor=#dae8fc;strokeColor=#6c8ebf;" vertex="1" parent="1">
          <mxGeometry x="130" y="720" width="120" height="60" as="geometry" />
        </mxCell>
        <mxCell id="7jtiY5M9mVHTs9dgm_Sb-10" value="" style="edgeStyle=orthogonalEdgeStyle;rounded=0;exitX=0;exitY=0.5;endArrow=none;dashed=0;html=1;strokeColor=#808080;strokeWidth=2;" edge="1" parent="1" source="7jtiY5M9mVHTs9dgm_Sb-12" target="7jtiY5M9mVHTs9dgm_Sb-11">
          <mxGeometry relative="1" as="geometry" />
        </mxCell>
        <mxCell id="7jtiY5M9mVHTs9dgm_Sb-11" value="" style="strokeWidth=2;dashed=0;align=center;fontSize=8;shape=ellipse;fillColor=#808080;strokeColor=none;" vertex="1" parent="1">
          <mxGeometry x="176.5" y="810" width="12" height="12" as="geometry" />
        </mxCell>
        <mxCell id="7jtiY5M9mVHTs9dgm_Sb-12" value="D" style="strokeWidth=2;dashed=0;align=center;fontSize=8;shape=rect;fillColor=#C7A0FF;fontStyle=1;whiteSpace=wrap;html=1;" vertex="1" parent="1">
          <mxGeometry x="192.5" y="828" width="12" height="12" as="geometry" />
        </mxCell>
        <mxCell id="_b9NuXSDLzWbAmvTPXuV-1" value="" style="rounded=0;whiteSpace=wrap;html=1;strokeColor=none;" vertex="1" parent="1">
          <mxGeometry x="1358.5" y="690" width="73" height="50" as="geometry" />
        </mxCell>
        <mxCell id="_b9NuXSDLzWbAmvTPXuV-2" value="" style="edgeStyle=orthogonalEdgeStyle;rounded=0;exitX=0;exitY=0.5;endArrow=none;dashed=0;html=1;strokeColor=#808080;strokeWidth=2;" edge="1" parent="1" source="_b9NuXSDLzWbAmvTPXuV-4" target="_b9NuXSDLzWbAmvTPXuV-3">
          <mxGeometry relative="1" as="geometry" />
        </mxCell>
        <mxCell id="_b9NuXSDLzWbAmvTPXuV-3" value="" style="strokeWidth=2;dashed=0;align=center;fontSize=8;shape=ellipse;fillColor=#808080;strokeColor=none;" vertex="1" parent="1">
          <mxGeometry x="1381.5" y="700" width="12" height="12" as="geometry" />
        </mxCell>
        <mxCell id="_b9NuXSDLzWbAmvTPXuV-4" value="D" style="strokeWidth=2;dashed=0;align=center;fontSize=8;shape=rect;fillColor=#C7A0FF;fontStyle=1;whiteSpace=wrap;html=1;" vertex="1" parent="1">
          <mxGeometry x="1397.5" y="718" width="12" height="12" as="geometry" />
        </mxCell>
        <mxCell id="_b9NuXSDLzWbAmvTPXuV-5" value="Greater Manchester Care Record, etc" style="rounded=1;whiteSpace=wrap;html=1;fillColor=#dae8fc;strokeColor=#6c8ebf;" vertex="1" parent="1">
          <mxGeometry x="1335" y="610" width="120" height="60" as="geometry" />
        </mxCell>
        <mxCell id="_b9NuXSDLzWbAmvTPXuV-10" style="edgeStyle=orthogonalEdgeStyle;rounded=0;orthogonalLoop=1;jettySize=auto;html=1;entryX=0;entryY=0.5;entryDx=0;entryDy=0;" edge="1" parent="1" source="_b9NuXSDLzWbAmvTPXuV-8" target="_b9NuXSDLzWbAmvTPXuV-1">
          <mxGeometry relative="1" as="geometry" />
        </mxCell>
        <mxCell id="_b9NuXSDLzWbAmvTPXuV-8" value="&lt;font style=&quot;font-size: 12px;&quot;&gt;HL7 v2.5.1 ORU_R01&lt;/font&gt;" style="strokeWidth=1;outlineConnect=0;dashed=0;align=center;html=1;fontSize=8;shape=mxgraph.eip.messageChannel;verticalLabelPosition=bottom;labelBackgroundColor=#ffffff;verticalAlign=top;" vertex="1" parent="1">
          <mxGeometry x="1155" y="705" width="100" height="20" as="geometry" />
        </mxCell>
        <mxCell id="_b9NuXSDLzWbAmvTPXuV-9" style="edgeStyle=orthogonalEdgeStyle;rounded=0;orthogonalLoop=1;jettySize=auto;html=1;entryX=0;entryY=0.5;entryDx=0;entryDy=0;entryPerimeter=0;exitX=1;exitY=0.5;exitDx=-2.7;exitDy=0;exitPerimeter=0;" edge="1" parent="1" source="_b9NuXSDLzWbAmvTPXuV-20" target="zOa1gmoCV6kyvnRKBHRq-1">
          <mxGeometry relative="1" as="geometry">
            <mxPoint x="460" y="825" as="sourcePoint" />
          </mxGeometry>
        </mxCell>
        <mxCell id="zOa1gmoCV6kyvnRKBHRq-1" value="&lt;font style=&quot;font-size: 12px;&quot;&gt;Convert to HL7 v2.5.1&lt;br&gt;Regional Canonicall Data Model&lt;/font&gt;" style="html=1;strokeWidth=2;outlineConnect=0;dashed=0;align=center;fontSize=8;shape=mxgraph.eip.message_translator;fillColor=#c0f5a9;verticalLabelPosition=bottom;verticalAlign=top;" vertex="1" parent="1">
          <mxGeometry x="460" y="780" width="150" height="90" as="geometry" />
        </mxCell>
        <mxCell id="zOa1gmoCV6kyvnRKBHRq-5" style="edgeStyle=orthogonalEdgeStyle;rounded=0;orthogonalLoop=1;jettySize=auto;html=1;" edge="1" parent="1" source="zOa1gmoCV6kyvnRKBHRq-2" target="zOa1gmoCV6kyvnRKBHRq-4">
          <mxGeometry relative="1" as="geometry" />
        </mxCell>
        <mxCell id="zOa1gmoCV6kyvnRKBHRq-2" value="&lt;font style=&quot;font-size: 12px;&quot;&gt;Update&amp;nbsp;&amp;nbsp;&lt;/font&gt;&lt;span style=&quot;font-size: 12px; background-color: transparent; color: light-dark(rgb(0, 0, 0), rgb(255, 255, 255));&quot;&gt;Genomic Data Repository&lt;/span&gt;&lt;div&gt;&lt;span style=&quot;font-size: 12px; background-color: transparent; color: light-dark(rgb(0, 0, 0), rgb(255, 255, 255));&quot;&gt;and enrich report content&amp;nbsp;&lt;/span&gt;&lt;/div&gt;" style="html=1;strokeWidth=2;outlineConnect=0;dashed=0;align=center;fontSize=8;fillColor=#c0f5a9;verticalLabelPosition=bottom;verticalAlign=top;shape=mxgraph.eip.content_enricher;" vertex="1" parent="1">
          <mxGeometry x="660" y="780" width="150" height="90" as="geometry" />
        </mxCell>
        <mxCell id="zOa1gmoCV6kyvnRKBHRq-3" style="edgeStyle=orthogonalEdgeStyle;rounded=0;orthogonalLoop=1;jettySize=auto;html=1;entryX=0;entryY=0.5;entryDx=0;entryDy=0;entryPerimeter=0;" edge="1" parent="1" source="zOa1gmoCV6kyvnRKBHRq-1" target="zOa1gmoCV6kyvnRKBHRq-2">
          <mxGeometry relative="1" as="geometry" />
        </mxCell>
        <mxCell id="zOa1gmoCV6kyvnRKBHRq-7" style="edgeStyle=orthogonalEdgeStyle;rounded=0;orthogonalLoop=1;jettySize=auto;html=1;entryX=0;entryY=0.5;entryDx=2.7;entryDy=0;entryPerimeter=0;" edge="1" parent="1" target="_b9NuXSDLzWbAmvTPXuV-8">
          <mxGeometry relative="1" as="geometry">
            <mxPoint x="1000" y="805" as="sourcePoint" />
            <mxPoint x="1170" y="720" as="targetPoint" />
            <Array as="points">
              <mxPoint x="1070" y="805" />
              <mxPoint x="1070" y="715" />
            </Array>
          </mxGeometry>
        </mxCell>
        <mxCell id="zOa1gmoCV6kyvnRKBHRq-4" value="&lt;font style=&quot;font-size: 12px;&quot;&gt;Route report to NHS Trust&lt;/font&gt;" style="html=1;strokeWidth=2;outlineConnect=0;dashed=0;align=center;fontSize=8;shape=mxgraph.eip.content_based_router;verticalLabelPosition=bottom;verticalAlign=top;fillColor=#c0f5a9;" vertex="1" parent="1">
          <mxGeometry x="850" y="780" width="150" height="90" as="geometry" />
        </mxCell>
        <mxCell id="zOa1gmoCV6kyvnRKBHRq-6" value="" style="edgeStyle=orthogonalEdgeStyle;rounded=0;orthogonalLoop=1;jettySize=auto;html=1;" edge="1" parent="1" source="SpyZkMs1lM7mogaTS6Ty-38" target="_b9NuXSDLzWbAmvTPXuV-20">
          <mxGeometry relative="1" as="geometry">
            <mxPoint x="340" y="825" as="targetPoint" />
            <mxPoint x="227" y="825" as="sourcePoint" />
          </mxGeometry>
        </mxCell>
        <mxCell id="_b9NuXSDLzWbAmvTPXuV-20" value="&lt;font style=&quot;font-size: 12px;&quot;&gt;HL7 v2.3&lt;br style=&quot;&quot;&gt;ORU_R01&lt;/font&gt;" style="strokeWidth=1;outlineConnect=0;dashed=0;align=center;html=1;fontSize=8;shape=mxgraph.eip.messageChannel;verticalLabelPosition=bottom;labelBackgroundColor=#ffffff;verticalAlign=top;" vertex="1" parent="1">
          <mxGeometry x="280" y="815" width="100" height="20" as="geometry" />
        </mxCell>
        <mxCell id="zOa1gmoCV6kyvnRKBHRq-8" value="Trust Integration Engine&lt;br&gt;(MFT, Alder Hey, etc)" style="rounded=0;whiteSpace=wrap;html=1;verticalAlign=top;" vertex="1" parent="1">
          <mxGeometry x="1110" y="800" width="190" height="180" as="geometry" />
        </mxCell>
        <mxCell id="zOa1gmoCV6kyvnRKBHRq-9" value="" style="rounded=0;whiteSpace=wrap;html=1;strokeColor=none;" vertex="1" parent="1">
          <mxGeometry x="1358.5" y="890" width="73" height="50" as="geometry" />
        </mxCell>
        <mxCell id="zOa1gmoCV6kyvnRKBHRq-10" value="" style="edgeStyle=orthogonalEdgeStyle;rounded=0;exitX=0;exitY=0.5;endArrow=none;dashed=0;html=1;strokeColor=#808080;strokeWidth=2;" edge="1" parent="1" source="zOa1gmoCV6kyvnRKBHRq-12" target="zOa1gmoCV6kyvnRKBHRq-11">
          <mxGeometry relative="1" as="geometry" />
        </mxCell>
        <mxCell id="zOa1gmoCV6kyvnRKBHRq-11" value="" style="strokeWidth=2;dashed=0;align=center;fontSize=8;shape=ellipse;fillColor=#808080;strokeColor=none;" vertex="1" parent="1">
          <mxGeometry x="1381.5" y="900" width="12" height="12" as="geometry" />
        </mxCell>
        <mxCell id="zOa1gmoCV6kyvnRKBHRq-12" value="D" style="strokeWidth=2;dashed=0;align=center;fontSize=8;shape=rect;fillColor=#C7A0FF;fontStyle=1;whiteSpace=wrap;html=1;" vertex="1" parent="1">
          <mxGeometry x="1397.5" y="918" width="12" height="12" as="geometry" />
        </mxCell>
        <mxCell id="zOa1gmoCV6kyvnRKBHRq-13" value="Meditech, EPIC, etc" style="rounded=1;whiteSpace=wrap;html=1;fillColor=#dae8fc;strokeColor=#6c8ebf;" vertex="1" parent="1">
          <mxGeometry x="1335" y="810" width="120" height="60" as="geometry" />
        </mxCell>
        <mxCell id="zOa1gmoCV6kyvnRKBHRq-14" style="edgeStyle=orthogonalEdgeStyle;rounded=0;orthogonalLoop=1;jettySize=auto;html=1;entryX=0;entryY=0.5;entryDx=0;entryDy=0;" edge="1" parent="1" source="zOa1gmoCV6kyvnRKBHRq-15" target="zOa1gmoCV6kyvnRKBHRq-9">
          <mxGeometry relative="1" as="geometry" />
        </mxCell>
        <mxCell id="zOa1gmoCV6kyvnRKBHRq-15" value="&lt;span style=&quot;font-size: 12px;&quot;&gt;HL7 v2.5.1 ORU_R01&lt;/span&gt;" style="strokeWidth=1;outlineConnect=0;dashed=0;align=center;html=1;fontSize=8;shape=mxgraph.eip.messageChannel;verticalLabelPosition=bottom;labelBackgroundColor=#ffffff;verticalAlign=top;" vertex="1" parent="1">
          <mxGeometry x="1155" y="905" width="100" height="20" as="geometry" />
        </mxCell>
        <mxCell id="zOa1gmoCV6kyvnRKBHRq-17" style="edgeStyle=orthogonalEdgeStyle;rounded=0;orthogonalLoop=1;jettySize=auto;html=1;entryX=0;entryY=0.5;entryDx=2.7;entryDy=0;entryPerimeter=0;exitX=1;exitY=0.75;exitDx=0;exitDy=0;exitPerimeter=0;" edge="1" parent="1" source="zOa1gmoCV6kyvnRKBHRq-4" target="zOa1gmoCV6kyvnRKBHRq-15">
          <mxGeometry relative="1" as="geometry">
            <Array as="points">
              <mxPoint x="1070" y="848" />
              <mxPoint x="1070" y="915" />
            </Array>
          </mxGeometry>
        </mxCell>
      </root>
    </mxGraphModel>
  </diagram>
</mxfile>
